<?xml version="1.0" encoding="UTF-8"?>
<svg id="Layer_1" data-name="Layer 1" xmlns="http://www.w3.org/2000/svg" viewBox="0 0 150 150">
  <defs>
    <style>
      .cls-1 {
        fill: #6ab5b8;
      }
    </style>
  </defs>
  <path class="cls-1" d="M58.38,99.56c-4.47,0-8.64-1.74-11.74-4.89-6.49-6.6-6.38-17.44.25-24.18l30.16-30.65c6.44-6.53,17.64-6.66,23.94-.26,6.49,6.6,6.37,17.45-.25,24.18l-6.81,6.92c-1.26,1.29-3.34,1.31-4.63.04s-1.31-3.34-.04-4.63l6.81-6.92c4.14-4.2,4.25-10.93.25-15-3.82-3.87-10.66-3.77-14.61.26l-30.16,30.65c-4.14,4.21-4.25,10.93-.25,15,3.82,3.88,10.66,3.77,14.61-.26l14.27-14.5c1.27-1.29,3.34-1.31,4.63-.04s1.31,3.34.04,4.63l-14.27,14.5c-3.27,3.32-7.6,5.15-12.2,5.15Z"/>
  <path class="cls-1" d="M36.06,108.62c-.85,0-1.69-.34-2.32-.96-.9-.9-1.2-2.25-.75-3.45l9.06-24.59c.63-1.7,2.51-2.57,4.2-1.94,1.7.63,2.56,2.51,1.94,4.2l-6.62,17.94,20.27-7.44c1.7-.63,3.58.25,4.2,1.94.62,1.7-.25,3.58-1.94,4.2l-26.92,9.88c-.37.13-.75.2-1.13.2v.02Z"/>
</svg>