<?xml version="1.0" encoding="UTF-8"?>
<svg id="Layer_1" data-name="Layer 1" xmlns="http://www.w3.org/2000/svg" viewBox="0 0 150 150">
  <defs>
    <style>
      .cls-1 {
        fill: #6ab5b8;
      }
    </style>
  </defs>
  <path class="cls-1" d="M74.99,91.82c-9.27,0-16.8-7.54-16.8-16.8s7.54-16.8,16.8-16.8,16.8,7.54,16.8,16.8c0,2.45-1.98,4.43-4.43,4.43s-4.43-1.98-4.43-4.43c0-4.38-3.56-7.94-7.94-7.94s-7.94,3.56-7.94,7.94,3.56,7.94,7.94,7.94c2.45,0,4.43,1.98,4.43,4.43s-1.98,4.43-4.43,4.43Z"/>
  <path class="cls-1" d="M76.02,125.01c-1.46.03-2.86-.12-4.27-.28l-1.37-.15c-1.58-.15-2.96-1.13-3.62-2.57-.76-1.66-2.45-5.53-3.43-7.79l-6.85-2.62c-2.15,1.02-5.75,2.72-7.32,3.43-1.49.67-3.22.47-4.53-.53-3.18-2.45-6.03-5.23-8.48-8.26-1-1.24-1.25-2.92-.67-4.4.6-1.54,2.04-5.04,2.92-7.18l-2.94-6.58c-2.1-.71-5.44-1.85-6.88-2.37-1.54-.55-2.65-1.91-2.89-3.52l-.18-1.19c-.26-1.64-.51-3.29-.55-5-.03-1.56.13-3.06.3-4.57l.15-1.32c.16-1.6,1.17-2.99,2.65-3.63,1.46-.64,4.81-2.03,6.87-2.89l2.67-6.71c-1.02-2.06-2.64-5.35-3.32-6.8-.7-1.47-.53-3.2.43-4.51,2.28-3.12,5-6.02,8.08-8.63,1.22-1.04,2.91-1.34,4.42-.77,1.68.63,5.5,2.13,7.73,3l6.72-2.89c.82-2.31,2.2-6.17,2.83-7.82.57-1.51,1.92-2.59,3.53-2.82l1.33-.2c2.92-.47,5.95-.56,8.88-.23l1.38.15c1.58.15,2.96,1.12,3.62,2.57.76,1.66,2.46,5.55,3.44,7.81l6.85,2.6c2.15-1.02,5.74-2.72,7.32-3.43,1.51-.66,3.24-.47,4.53.53,3.18,2.45,6.03,5.23,8.48,8.26,1,1.24,1.26,2.92.67,4.4-.6,1.54-2.04,5.04-2.92,7.18l2.94,6.6c2.1.71,5.43,1.84,6.87,2.36,1.54.55,2.66,1.91,2.89,3.53l.19,1.22c.26,1.63.5,3.26.54,4.95.03,1.56-.13,3.06-.3,4.56l-.15,1.33c-.16,1.6-1.17,2.99-2.65,3.63-1.46.63-4.82,2.03-6.88,2.89l-2.66,6.71c1.02,2.05,2.64,5.34,3.32,6.78.7,1.47.53,3.2-.43,4.51-2.27,3.11-4.99,6.02-8.08,8.63-1.23,1.05-2.92,1.33-4.42.77-1.68-.63-5.48-2.12-7.71-3l-6.74,2.89c-.82,2.31-2.21,6.17-2.83,7.82-.57,1.51-1.92,2.59-3.53,2.82l-1.33.2c-1.52.24-3.05.47-4.63.5v.03ZM73.8,116.04c1.42.15,2.91.11,4.31-.11,1.09-3,2.53-7.06,2.53-7.06.41-1.16,1.29-2.1,2.43-2.59l10.2-4.37c1.07-.47,2.29-.48,3.38-.05,0,0,3.82,1.51,6.75,2.65,1.11-1.06,2.15-2.17,3.12-3.31-1.29-2.63-2.94-5.95-2.94-5.95-.56-1.13-.62-2.44-.15-3.61l4.08-10.28c.44-1.11,1.32-2,2.42-2.46,0,0,3.45-1.43,6.13-2.55.08-.73.13-1.46.11-2.21-.02-.82-.11-1.61-.22-2.4-2.68-.92-6.09-2.06-6.09-2.06-1.17-.4-2.13-1.27-2.63-2.4l-4.51-10.11c-.49-1.11-.51-2.37-.05-3.5,0,0,1.47-3.55,2.6-6.33-1.02-1.11-2.12-2.18-3.28-3.19-2.8,1.31-6.39,3.02-6.39,3.02-1.09.52-2.34.57-3.48.14l-10.37-3.94c-1.12-.43-2.02-1.29-2.49-2.39,0,0-1.77-4.09-3.08-7.07-1.41-.15-2.89-.1-4.3.11-1.09,3-2.52,7.06-2.52,7.06-.41,1.16-1.29,2.1-2.42,2.59l-10.18,4.38c-1.08.47-2.29.49-3.38.05,0,0-3.84-1.52-6.78-2.66-1.11,1.06-2.15,2.17-3.12,3.31,1.29,2.64,2.94,5.97,2.95,5.97.56,1.13.61,2.44.14,3.61l-4.09,10.28c-.44,1.11-1.31,2-2.42,2.46,0,0-3.45,1.43-6.12,2.55-.08.73-.13,1.46-.11,2.21.02.82.11,1.62.22,2.41,2.69.92,6.1,2.08,6.1,2.08,1.17.4,2.12,1.26,2.62,2.39l4.51,10.09c.5,1.11.52,2.38.05,3.5,0,0-1.47,3.56-2.6,6.33,1.02,1.11,2.11,2.18,3.27,3.18,2.8-1.31,6.39-3.01,6.39-3.02,1.1-.52,2.36-.56,3.49-.14l10.36,3.95c1.11.43,2.01,1.28,2.49,2.38,0,0,1.77,4.08,3.08,7.05h-.01Z"/>
</svg>