<?xml version="1.0" encoding="UTF-8"?>
<svg id="Layer_1" data-name="Layer 1" xmlns="http://www.w3.org/2000/svg" viewBox="0 0 150 150">
  <defs>
    <style>
      .cls-1 {
        fill: #cebcaa;
      }
    </style>
  </defs>
  <path class="cls-1" d="M74.33,67.33c5.39,0,9.78-4.39,9.78-9.78v-11.81c0-5.39-4.39-9.78-9.78-9.78s-9.78,4.39-9.78,9.78v11.81c0,5.39,4.39,9.78,9.78,9.78Z"/>
  <path class="cls-1" d="M119.99,12.23H31.43c-13.34,0-24.25,10.91-24.25,24.25v77.04c0,13.34,10.91,24.25,24.25,24.25h88.55c13.34,0,24.25-10.91,24.25-24.25V36.48c0-13.34-10.91-24.25-24.25-24.25h0ZM57.09,45.74c0-9.5,7.73-17.23,17.23-17.23s17.23,7.73,17.23,17.23v11.81c0,9.5-7.73,17.23-17.23,17.23s-17.23-7.73-17.23-17.23v-11.81ZM102.74,112.68h-56.83c-2.06,0-3.73-1.67-3.73-3.73s1.67-3.73,3.73-3.73h24.69v-6.27c0-2.06,1.67-3.73,3.73-3.73s3.73,1.67,3.73,3.73v6.27h24.69c2.06,0,3.73,1.67,3.73,3.73s-1.67,3.73-3.73,3.73h-.01ZM74.33,89.68c-17.72,0-32.14-14.42-32.14-32.14,0-2.06,1.67-3.73,3.73-3.73s3.73,1.67,3.73,3.73c0,13.61,11.07,24.69,24.69,24.69s24.69-11.08,24.69-24.69c0-2.06,1.67-3.73,3.73-3.73s3.73,1.67,3.73,3.73c0,17.72-14.42,32.14-32.14,32.14h-.02Z"/>
</svg>