<?xml version="1.0" encoding="UTF-8"?>
<svg id="Layer_1" data-name="Layer 1" xmlns="http://www.w3.org/2000/svg" viewBox="0 0 150 150">
  <defs>
    <style>
      .cls-1 {
        fill: #6ab5b8;
      }
    </style>
  </defs>
  <path class="cls-1" d="M98.82,98.84c-.84,0-1.67-.32-2.31-.96l-47.65-47.65c-1.28-1.28-1.28-3.35,0-4.63,1.28-1.28,3.35-1.28,4.63,0l47.65,47.65c1.28,1.28,1.28,3.35,0,4.63-.64.64-1.48.96-2.31.96h-.01Z"/>
  <path class="cls-1" d="M51.17,98.84c-.84,0-1.67-.32-2.31-.96-1.28-1.28-1.28-3.35,0-4.63l47.65-47.65c1.28-1.28,3.35-1.28,4.63,0s1.28,3.35,0,4.63l-47.65,47.65c-.64.64-1.48.96-2.31.96h-.01Z"/>
</svg>