<?xml version="1.0" encoding="UTF-8"?>
<svg id="Layer_1" data-name="Layer 1" xmlns="http://www.w3.org/2000/svg" viewBox="0 0 150 150">
  <defs>
    <style>
      .cls-1 {
        fill: #cebcaa;
      }
    </style>
  </defs>
  <path class="cls-1" d="M119.28,12.23H30.72c-13.34,0-24.25,10.91-24.25,24.25v77.04c0,13.34,10.91,24.25,24.25,24.25h88.55c13.34,0,24.25-10.91,24.25-24.25V36.48c0-13.34-10.91-24.25-24.25-24.25ZM115.91,93.46c0,12.38-10.07,22.44-22.44,22.44h-17.6c-1.82,0-3.3-1.48-3.3-3.3s1.48-3.3,3.3-3.3h17.6c8.74,0,15.84-7.11,15.84-15.84v-36.92c0-8.74-7.11-15.84-15.84-15.84h-36.92c-8.74,0-15.84,7.11-15.84,15.84v36.92c0,8.74,7.11,15.84,15.84,15.84,1.82,0,3.3,1.48,3.3,3.3s-1.48,3.3-3.3,3.3c-12.37,0-22.44-10.07-22.44-22.44v-36.92c0-12.38,10.07-22.44,22.44-22.44h36.92c12.37,0,22.44,10.07,22.44,22.44,0,0,0,36.92,0,36.92ZM96.78,75c0,12.01-9.77,21.78-21.78,21.78s-21.78-9.77-21.78-21.78,9.77-21.78,21.78-21.78,21.78,9.77,21.78,21.78ZM90.99,51.07c0-3.27,2.65-5.93,5.93-5.93s5.93,2.65,5.93,5.93-2.65,5.93-5.93,5.93-5.93-2.65-5.93-5.93Z"/>
  <path class="cls-1" d="M75.01,59.83c-8.37,0-15.18,6.81-15.18,15.18s6.81,15.18,15.18,15.18,15.18-6.81,15.18-15.18-6.81-15.18-15.18-15.18h0Z"/>
</svg>